<svg width="512" height="512" viewBox="0 0 512 512" fill="none" xmlns="http://www.w3.org/2000/svg">
<rect width="512" height="512" fill="white"/>
<path d="M97.784 272.072C97.784 277.832 97.144 283.208 96.12 288.072L126.328 310.728L113.144 330.312L86.52 309.96C82.936 314.824 78.456 318.792 73.208 322.376C67.832 325.704 61.432 328.392 54.264 330.312L42.872 310.984C52.6 308.296 59.768 303.816 64.376 297.544C68.984 291.4 71.288 282.952 71.288 271.944V224.584H97.784V272.072ZM157.176 331.848H130.68V223.56H157.176V331.848Z" fill="black"/>
<path d="M442.176 290.248V334.408H341.056V290.248H442.176ZM399.936 224.84V245.448H378.944V247.24C378.944 248.264 378.816 249.16 378.816 250.056C378.688 251.08 378.56 251.976 378.432 252.872L404.8 267.208L390.464 285.512L369.088 271.816C362.176 278.984 352.192 283.592 339.264 285.512L327.872 266.184C335.808 264.648 341.952 262.472 346.176 259.528C350.272 256.712 352.448 252.488 352.448 247.112V245.448H332.736V224.84H399.936ZM442.176 223.56V285.768H415.68V259.528L402.88 262.344V238.152L415.68 235.336V223.56H442.176ZM367.552 308.296V316.36H415.68V308.296H367.552Z" fill="black"/>
<g filter="url(#filter0_d_1203_7)">
<path d="M244.853 149C301.103 149 346.703 194.66 346.703 250.983C346.703 275.728 337.895 298.41 323.256 316.071L363.83 358.141C369.532 364.053 369.365 373.473 363.461 379.182C357.557 384.892 348.147 384.729 342.447 378.817L301.138 335.981C285.013 346.71 265.664 352.966 244.853 352.966C188.602 352.966 143 307.306 143 250.983C143 194.66 188.602 149 244.853 149ZM243.539 173.509C200.567 173.51 165.729 208.392 165.729 251.419C165.729 294.446 200.567 329.328 243.539 329.328C286.512 329.328 321.349 294.447 321.349 251.419C321.348 208.391 286.511 173.509 243.539 173.509Z" fill="url(#paint0_linear_1203_7)"/>
<path d="M243.54 329.329C286.513 329.329 321.35 294.448 321.35 251.42C321.35 208.392 286.513 173.51 243.54 173.51C200.567 173.51 165.731 208.392 165.731 251.42C165.731 294.448 200.567 329.329 243.54 329.329Z" fill="#00C4B4" fill-opacity="0.08"/>
<path d="M243.541 175.763C285.271 175.764 319.101 209.637 319.101 251.42C319.101 293.204 285.271 327.077 243.541 327.077C201.811 327.077 167.981 293.204 167.981 251.42C167.981 209.637 201.81 175.763 243.541 175.763Z" stroke="#00C4B4" stroke-opacity="0.08"/>
</g>
<defs>
<filter id="filter0_d_1203_7" x="139" y="149" width="233" height="242.36" filterUnits="userSpaceOnUse" color-interpolation-filters="sRGB">
<feFlood flood-opacity="0" result="BackgroundImageFix"/>
<feColorMatrix in="SourceAlpha" type="matrix" values="0 0 0 0 0 0 0 0 0 0 0 0 0 0 0 0 0 0 127 0" result="hardAlpha"/>
<feOffset dy="4"/>
<feGaussianBlur stdDeviation="2"/>
<feComposite in2="hardAlpha" operator="out"/>
<feColorMatrix type="matrix" values="0 0 0 0 0 0 0 0 0 0 0 0 0 0 0 0 0 0 0.2 0"/>
<feBlend mode="normal" in2="BackgroundImageFix" result="effect1_dropShadow_1203_7"/>
<feBlend mode="normal" in="SourceGraphic" in2="effect1_dropShadow_1203_7" result="shape"/>
</filter>
<linearGradient id="paint0_linear_1203_7" x1="255.501" y1="149" x2="255.501" y2="383.36" gradientUnits="userSpaceOnUse">
<stop stop-color="#4CD6CB"/>
<stop offset="1" stop-color="#00C4B4"/>
</linearGradient>
</defs>
</svg>
